<svg width="6" height="5" viewBox="0 0 6 5" fill="none" xmlns="http://www.w3.org/2000/svg">
<path d="M5.46713 0.258333C5.42485 0.156521 5.34394 0.0756145 5.24213 0.0333333C5.19204 0.0119829 5.13824 0.000658328 5.0838 0H0.917129C0.806623 0 0.700642 0.0438988 0.622502 0.122039C0.544362 0.200179 0.500463 0.30616 0.500463 0.416667C0.500463 0.527174 0.544362 0.633154 0.622502 0.711294C0.700642 0.789435 0.806623 0.833333 0.917129 0.833333H4.07963L0.621296 4.2875C0.582243 4.32624 0.551245 4.37232 0.530092 4.42309C0.508938 4.47387 0.498047 4.52833 0.498047 4.58333C0.498047 4.63834 0.508938 4.6928 0.530092 4.74357C0.551245 4.79435 0.582243 4.84043 0.621296 4.87917C0.660031 4.91822 0.706114 4.94922 0.756889 4.97037C0.807664 4.99153 0.862125 5.00242 0.917129 5.00242C0.972134 5.00242 1.0266 4.99153 1.07737 4.97037C1.12814 4.94922 1.17423 4.91822 1.21296 4.87917L4.66713 1.42083V4.58333C4.66713 4.69384 4.71103 4.79982 4.78917 4.87796C4.86731 4.9561 4.97329 5 5.0838 5C5.1943 5 5.30028 4.9561 5.37842 4.87796C5.45656 4.79982 5.50046 4.69384 5.50046 4.58333V0.416667C5.4998 0.362218 5.48848 0.308426 5.46713 0.258333Z" fill="#1D7BC7"/>
</svg>
