<svg width="129" height="122" viewBox="0 0 129 122" fill="none" xmlns="http://www.w3.org/2000/svg">
<path d="M0.5 1.5L10.1986 15.8505L17.7772 0.276067L0.5 1.5ZM106.152 56.966L105.926 55.4831L106.152 56.966ZM106.726 53.1904L107.382 51.8416L106.726 53.1904ZM46.6361 66.0228L46.8618 67.5057L46.6361 66.0228ZM126.029 73.7001L126.819 74.9752L126.029 73.7001ZM51.2901 121.775L126.819 74.9752L125.239 72.425L49.7099 119.225L51.2901 121.775ZM124.975 68.5H46.937V71.5H124.975V68.5ZM46.8618 67.5057L106.378 58.4489L105.926 55.4831L46.4105 64.5398L46.8618 67.5057ZM107.382 51.8416L13.2954 6.05818L11.9828 8.75576L106.07 54.5392L107.382 51.8416ZM106.378 58.4489C109.773 57.9323 110.471 53.3443 107.382 51.8416L106.07 54.5392C106.511 54.7538 106.411 55.4093 105.926 55.4831L106.378 58.4489ZM46.937 68.5C46.7108 68.5 46.6214 68.4291 46.5774 68.3839C46.5135 68.3184 46.4506 68.1987 46.4384 68.0377C46.4263 67.8767 46.4704 67.749 46.5237 67.6746C46.5604 67.6232 46.6381 67.5397 46.8618 67.5057L46.4105 64.5398C42.1327 65.1908 42.6101 71.5 46.937 71.5V68.5ZM126.819 74.9752C129.814 73.1193 128.499 68.5 124.975 68.5V71.5C125.135 71.5 125.227 71.5471 125.287 71.5958C125.358 71.6531 125.422 71.7449 125.456 71.8631C125.49 71.9813 125.483 72.0932 125.453 72.1792C125.428 72.2525 125.374 72.3409 125.239 72.425L126.819 74.9752Z" fill="#1D7BC7"/>
</svg>
