<svg width="15" height="16" viewBox="0 0 15 16" fill="none" xmlns="http://www.w3.org/2000/svg">
<path d="M9.81875 7.55625C9.87565 7.61569 9.92025 7.68578 9.95 7.7625C10.0125 7.91466 10.0125 8.08534 9.95 8.2375C9.92025 8.31422 9.87565 8.38431 9.81875 8.44375L7.94375 10.3188C7.82606 10.4364 7.66644 10.5026 7.5 10.5026C7.33356 10.5026 7.17394 10.4364 7.05625 10.3188C6.93856 10.2011 6.87244 10.0414 6.87244 9.875C6.87244 9.70856 6.93856 9.54894 7.05625 9.43125L7.86875 8.625H5.625C5.45924 8.625 5.30027 8.55915 5.18306 8.44194C5.06585 8.32473 5 8.16576 5 8C5 7.83424 5.06585 7.67527 5.18306 7.55806C5.30027 7.44085 5.45924 7.375 5.625 7.375H7.86875L7.05625 6.56875C6.99767 6.51065 6.95117 6.44152 6.91944 6.36536C6.88771 6.2892 6.87138 6.20751 6.87138 6.125C6.87138 6.04249 6.88771 5.9608 6.91944 5.88464C6.95117 5.80848 6.99767 5.73935 7.05625 5.68125C7.11435 5.62267 7.18348 5.57617 7.25964 5.54444C7.3358 5.51271 7.41749 5.49638 7.5 5.49638C7.58251 5.49638 7.6642 5.51271 7.74036 5.54444C7.81652 5.57617 7.88565 5.62267 7.94375 5.68125L9.81875 7.55625ZM13.75 8C13.75 9.23613 13.3834 10.4445 12.6967 11.4723C12.0099 12.5001 11.0338 13.3012 9.89177 13.7742C8.74973 14.2473 7.49307 14.3711 6.28069 14.1299C5.0683 13.8888 3.95466 13.2935 3.08058 12.4194C2.2065 11.5453 1.61125 10.4317 1.37009 9.21931C1.12893 8.00693 1.2527 6.75027 1.72575 5.60823C2.1988 4.46619 2.99988 3.49007 4.02769 2.80331C5.05549 2.11656 6.26387 1.75 7.5 1.75C8.32076 1.75 9.13349 1.91166 9.89177 2.22575C10.6501 2.53984 11.3391 3.00022 11.9194 3.58058C13.0915 4.75269 13.75 6.3424 13.75 8ZM2.5 8C2.5 8.98891 2.79325 9.9556 3.34265 10.7779C3.89206 11.6001 4.67295 12.241 5.58658 12.6194C6.50021 12.9978 7.50555 13.0969 8.47545 12.9039C9.44536 12.711 10.3363 12.2348 11.0355 11.5355C11.7348 10.8363 12.211 9.94536 12.4039 8.97545C12.5969 8.00555 12.4978 7.00021 12.1194 6.08658C11.741 5.17295 11.1001 4.39206 10.2779 3.84265C9.45561 3.29324 8.48891 3 7.5 3C6.17392 3 4.90215 3.52678 3.96447 4.46447C3.02678 5.40215 2.5 6.67392 2.5 8Z" fill="#B3B3B3"/>
</svg>
