<svg width="17" height="14" viewBox="0 0 17 14" fill="none" xmlns="http://www.w3.org/2000/svg">
<path d="M15.8632 7.3315L14.4569 8.73775C14.4134 8.78134 14.3617 8.81591 14.3048 8.8395C14.2479 8.86309 14.1869 8.87523 14.1253 8.87523C14.0637 8.87523 14.0027 8.86309 13.9458 8.8395C13.8889 8.81591 13.8372 8.78134 13.7936 8.73775L12.3874 7.3315C12.2994 7.24355 12.25 7.12425 12.25 6.99986C12.25 6.87547 12.2994 6.75618 12.3874 6.66822C12.4753 6.58027 12.5946 6.53085 12.719 6.53085C12.8434 6.53085 12.9627 6.58027 13.0507 6.66822L13.6565 7.27467V6.99986C13.6571 5.90805 13.311 4.84424 12.6682 3.96169C12.0254 3.07914 11.1191 2.42341 10.0798 2.08895C9.04044 1.7545 7.92177 1.75859 6.88491 2.10063C5.84806 2.44268 4.94654 3.10502 4.31022 3.99225C4.23765 4.09326 4.12792 4.1613 4.00518 4.18141C3.88244 4.20152 3.75674 4.17204 3.65573 4.09947C3.55472 4.0269 3.48668 3.91717 3.46657 3.79443C3.44646 3.67169 3.47593 3.54599 3.5485 3.44498C4.30055 2.39646 5.36601 1.61372 6.59141 1.20952C7.8168 0.805326 9.13888 0.80054 10.3672 1.19585C11.5955 1.59117 12.6666 2.36617 13.4262 3.40922C14.1858 4.45227 14.5947 5.70953 14.594 6.99986V7.27467L15.1999 6.66822C15.2878 6.58027 15.4071 6.53085 15.5315 6.53085C15.6559 6.53085 15.7752 6.58027 15.8632 6.66822C15.9511 6.75618 16.0005 6.87547 16.0005 6.99986C16.0005 7.12425 15.9511 7.24355 15.8632 7.3315ZM13.4503 10.5542C12.698 11.6019 11.6327 12.3839 10.4077 12.7876C9.18268 13.1914 7.86117 13.196 6.63337 12.8008C5.40557 12.4057 4.33481 11.6311 3.57524 10.5887C2.81567 9.54625 2.40646 8.28968 2.40651 6.99986V6.72506L1.80065 7.3315C1.71269 7.41946 1.5934 7.46887 1.46901 7.46887C1.34462 7.46887 1.22533 7.41946 1.13737 7.3315C1.04941 7.24355 1 7.12425 1 6.99986C1 6.87547 1.04941 6.75618 1.13737 6.66822L2.54362 5.26197C2.58715 5.21839 2.63885 5.18382 2.69576 5.16023C2.75266 5.13664 2.81366 5.12449 2.87526 5.12449C2.93686 5.12449 2.99786 5.13664 3.05476 5.16023C3.11167 5.18382 3.16337 5.21839 3.2069 5.26197L4.61315 6.66822C4.70111 6.75618 4.75052 6.87547 4.75052 6.99986C4.75052 7.12425 4.70111 7.24355 4.61315 7.3315C4.5252 7.41946 4.4059 7.46887 4.28151 7.46887C4.15712 7.46887 4.03783 7.41946 3.94987 7.3315L3.34401 6.72506V6.99986C3.3429 8.26208 3.80681 9.48048 4.64714 10.4223C5.16993 9.66475 5.90504 9.07866 6.76003 8.73775C6.30076 8.37602 5.96563 7.88016 5.80124 7.31914C5.63685 6.75811 5.65138 6.1598 5.84279 5.60741C6.03421 5.05502 6.393 4.57601 6.86928 4.23699C7.34556 3.89796 7.91565 3.71579 8.50026 3.71579C9.08488 3.71579 9.65496 3.89796 10.1312 4.23699C10.6075 4.57601 10.9663 5.05502 11.1577 5.60741C11.3491 6.1598 11.3637 6.75811 11.1993 7.31914C11.0349 7.88016 10.6998 8.37602 10.2405 8.73775C11.0963 9.07875 11.8319 9.66553 12.3546 10.4241C12.4731 10.291 12.5847 10.1519 12.6891 10.0075C12.7617 9.90647 12.8714 9.83843 12.9942 9.81832C13.1169 9.79821 13.2426 9.82768 13.3436 9.90025C13.4446 9.97282 13.5127 10.0826 13.5328 10.2053C13.5529 10.328 13.5228 10.4531 13.4503 10.5542ZM8.50026 8.40611C8.8711 8.40611 9.23361 8.29614 9.54196 8.09012C9.8503 7.88409 10.0906 7.59125 10.2325 7.24864C10.3745 6.90603 10.4116 6.52903 10.3392 6.16532C10.2669 5.8016 10.0883 5.46751 9.82609 5.20529C9.56386 4.94306 9.22977 4.76449 8.86606 4.69214C8.50234 4.61979 8.12534 4.65692 7.78273 4.79884C7.44012 4.94075 7.14728 5.18108 6.94126 5.48942C6.73523 5.79776 6.62526 6.16027 6.62526 6.53111C6.62526 7.02839 6.82281 7.50531 7.17444 7.85694C7.52607 8.20857 8.00298 8.40611 8.50026 8.40611ZM8.50026 12.1561C9.64427 12.1546 10.7555 11.7736 11.6596 11.0727C11.3205 10.5424 10.8534 10.1059 10.3012 9.80361C9.74911 9.50129 9.12975 9.34282 8.50026 9.34282C7.87078 9.34282 7.25142 9.50129 6.69928 9.80361C6.14714 10.1059 5.67999 10.5424 5.34089 11.0727C6.24371 11.7761 7.35578 12.1574 8.50026 12.1561Z" fill="#1D7BC7" stroke="#1D7BC7" stroke-width="0.5"/>
</svg>
