<svg width="20" height="20" viewBox="0 0 20 20" fill="none" xmlns="http://www.w3.org/2000/svg">
<path d="M9.9994 1.66669C8.90505 1.66669 7.82142 1.88224 6.81037 2.30102C5.79932 2.71981 4.88067 3.33364 4.10684 4.10746C2.54404 5.67027 1.66607 7.78988 1.66607 10C1.65878 11.9243 2.32506 13.7905 3.5494 15.275L1.88273 16.9417C1.7671 17.0589 1.68877 17.2077 1.65763 17.3693C1.62648 17.531 1.64392 17.6983 1.70773 17.85C1.77695 18 1.88915 18.126 2.03011 18.212C2.17106 18.2981 2.3344 18.3403 2.4994 18.3334H9.9994C12.2095 18.3334 14.3292 17.4554 15.892 15.8926C17.4548 14.3298 18.3327 12.2102 18.3327 10C18.3327 7.78988 17.4548 5.67027 15.892 4.10746C14.3292 2.54466 12.2095 1.66669 9.9994 1.66669ZM9.9994 16.6667H4.50773L5.28273 15.8917C5.43794 15.7356 5.52506 15.5243 5.52506 15.3042C5.52506 15.084 5.43794 14.8728 5.28273 14.7167C4.19155 13.6267 3.51205 12.1921 3.35998 10.6573C3.20791 9.12256 3.59269 7.58253 4.44876 6.29962C5.30483 5.01672 6.57923 4.07032 8.05483 3.62166C9.53043 3.17301 11.1159 3.24986 12.5412 3.83911C13.9665 4.42837 15.1434 5.49358 15.8714 6.85326C16.5994 8.21294 16.8335 9.78297 16.5337 11.2959C16.2339 12.8087 15.4188 14.1709 14.2273 15.1502C13.0359 16.1295 11.5417 16.6655 9.9994 16.6667Z" fill="#B3B3B3"/>
</svg>
