<svg width="17" height="17" viewBox="0 0 17 17" fill="none" xmlns="http://www.w3.org/2000/svg">
<path d="M14.875 6.33234C14.8676 6.26727 14.8534 6.20316 14.8325 6.14109V6.07734C14.7984 6.00451 14.753 5.93756 14.6979 5.879L10.4479 1.629C10.3894 1.57391 10.3224 1.52848 10.2496 1.49442C10.2284 1.49142 10.207 1.49142 10.1858 1.49442C10.1139 1.45315 10.0344 1.42666 9.95208 1.4165H7.08333C6.51975 1.4165 5.97925 1.64039 5.58073 2.0389C5.18222 2.43742 4.95833 2.97792 4.95833 3.5415V4.24984H4.25C3.68641 4.24984 3.14591 4.47372 2.7474 4.87224C2.34888 5.27075 2.125 5.81125 2.125 6.37484V13.4582C2.125 14.0218 2.34888 14.5623 2.7474 14.9608C3.14591 15.3593 3.68641 15.5832 4.25 15.5832H9.91667C10.4803 15.5832 11.0208 15.3593 11.4193 14.9608C11.8178 14.5623 12.0417 14.0218 12.0417 13.4582V12.7498H12.75C13.3136 12.7498 13.8541 12.526 14.2526 12.1274C14.6511 11.7289 14.875 11.1884 14.875 10.6248V6.37484C14.875 6.37484 14.875 6.37484 14.875 6.33234ZM10.625 3.83192L12.4596 5.6665H11.3333C11.1455 5.6665 10.9653 5.59188 10.8325 5.45904C10.6996 5.3262 10.625 5.14603 10.625 4.95817V3.83192ZM10.625 13.4582C10.625 13.646 10.5504 13.8262 10.4175 13.959C10.2847 14.0919 10.1045 14.1665 9.91667 14.1665H4.25C4.06214 14.1665 3.88197 14.0919 3.74913 13.959C3.61629 13.8262 3.54167 13.646 3.54167 13.4582V6.37484C3.54167 6.18698 3.61629 6.00681 3.74913 5.87397C3.88197 5.74113 4.06214 5.6665 4.25 5.6665H4.95833V10.6248C4.95833 11.1884 5.18222 11.7289 5.58073 12.1274C5.97925 12.526 6.51975 12.7498 7.08333 12.7498H10.625V13.4582ZM13.4583 10.6248C13.4583 10.8127 13.3837 10.9929 13.2509 11.1257C13.118 11.2585 12.9379 11.3332 12.75 11.3332H7.08333C6.89547 11.3332 6.7153 11.2585 6.58247 11.1257C6.44963 10.9929 6.375 10.8127 6.375 10.6248V3.5415C6.375 3.35364 6.44963 3.17347 6.58247 3.04064C6.7153 2.9078 6.89547 2.83317 7.08333 2.83317H9.20833V4.95817C9.20833 5.52176 9.43222 6.06226 9.83073 6.46077C10.2292 6.85929 10.7697 7.08317 11.3333 7.08317H13.4583V10.6248Z" fill="#FAFDFF"/>
</svg>
