<svg width="10" height="9" viewBox="0 0 10 9" fill="none" xmlns="http://www.w3.org/2000/svg">
<path d="M1.51657 8.12765C1.58707 8.39464 1.86066 8.55393 2.12765 8.48343L6.47853 7.33456C6.74552 7.26406 6.9048 6.99047 6.8343 6.72348C6.7638 6.45649 6.49021 6.2972 6.22322 6.3677L2.35578 7.38892L1.33456 3.52147C1.26406 3.25448 0.990471 3.0952 0.72348 3.1657C0.456489 3.2362 0.297201 3.50979 0.367702 3.77678L1.51657 8.12765ZM6.07547 1L6.47336 0.697205L6.02002 0.101495L5.64337 0.748427L6.07547 1ZM9.5 5.5L9.10211 5.8028L10 6.98266V5.5H9.5ZM2.4321 8.25157L6.50757 1.25157L5.64337 0.748427L1.5679 7.74843L2.4321 8.25157ZM5.67758 1.3028L9.10211 5.8028L9.89789 5.1972L6.47336 0.697205L5.67758 1.3028ZM10 5.5V0.5H9V5.5H10Z" fill="#BB1010"/>
</svg>
