<svg width="27" height="7" viewBox="0 0 27 7" fill="none" xmlns="http://www.w3.org/2000/svg">
<path d="M6.20833 3.50001C6.20833 4.27356 5.90104 5.01542 5.35406 5.5624C4.80708 6.10939 4.06521 6.41668 3.29167 6.41668C2.51812 6.41668 1.77625 6.10939 1.22927 5.5624C0.682291 5.01542 0.375 4.27356 0.375 3.50001C0.375 2.72646 0.682291 1.9846 1.22927 1.43762C1.77625 0.890635 2.51812 0.583344 3.29167 0.583344C4.06521 0.583344 4.80708 0.890635 5.35406 1.43762C5.90104 1.9846 6.20833 2.72646 6.20833 3.50001ZM16.4167 3.50001C16.4167 4.27356 16.1094 5.01542 15.5624 5.5624C15.0154 6.10939 14.2735 6.41668 13.5 6.41668C12.7265 6.41668 11.9846 6.10939 11.4376 5.5624C10.8906 5.01542 10.5833 4.27356 10.5833 3.50001C10.5833 2.72646 10.8906 1.9846 11.4376 1.43762C11.9846 0.890635 12.7265 0.583344 13.5 0.583344C14.2735 0.583344 15.0154 0.890635 15.5624 1.43762C16.1094 1.9846 16.4167 2.72646 16.4167 3.50001ZM26.625 3.50001C26.625 4.27356 26.3177 5.01542 25.7707 5.5624C25.2237 6.10939 24.4819 6.41668 23.7083 6.41668C22.9348 6.41668 22.1929 6.10939 21.6459 5.5624C21.099 5.01542 20.7917 4.27356 20.7917 3.50001C20.7917 2.72646 21.099 1.9846 21.6459 1.43762C22.1929 0.890635 22.9348 0.583344 23.7083 0.583344C24.4819 0.583344 25.2237 0.890635 25.7707 1.43762C26.3177 1.9846 26.625 2.72646 26.625 3.50001Z" fill="#00172A"/>
</svg>
