<svg width="17" height="18" viewBox="0 0 17 18" fill="none" xmlns="http://www.w3.org/2000/svg">
<path d="M14.0112 13.052C12.8493 13.331 11.6364 13.3175 10.4811 13.0127C9.32576 12.7079 8.26405 12.1213 7.39104 11.3055C6.51803 10.4897 5.86097 9.47009 5.47871 8.33802C5.09645 7.20595 5.00091 5.99675 5.20065 4.8187C5.17073 4.84853 5.13862 4.87609 5.1046 4.90115C4.86659 5.0822 4.56909 5.14935 3.97407 5.28366L3.4343 5.40606C1.34324 5.87953 0.297709 6.11583 0.0486512 6.91571C-0.199556 7.71473 0.512765 8.54861 1.93826 10.2155L2.30717 10.6465C2.71178 11.1199 2.91494 11.3571 3.00589 11.6495C3.09684 11.9428 3.06624 12.259 3.00504 12.8905L2.94894 13.466C2.73388 15.6905 2.62593 16.8024 3.27705 17.2962C3.92817 17.7901 4.90739 17.3404 6.86415 16.4385L7.37162 16.2056C7.92753 15.9489 8.20549 15.8214 8.50045 15.8214C8.79541 15.8214 9.07337 15.9489 9.63014 16.2056L10.1359 16.4385C12.0935 17.3396 13.0727 17.7901 13.723 17.2971C14.375 16.8024 14.267 15.6905 14.052 13.466L14.0112 13.052Z" fill="#FFD500"/>
<path opacity="0.5" d="M6.08109 3.39679L5.80229 3.89661C5.49628 4.44573 5.34327 4.72028 5.10526 4.90134C5.13927 4.87584 5.17128 4.84835 5.20132 4.81889C5.00152 5.99703 5.09705 7.20633 5.47936 8.33849C5.86166 9.47064 6.5188 10.4903 7.39192 11.3061C8.26504 12.122 9.32687 12.7085 10.4823 13.0133C11.6378 13.318 12.8508 13.3314 14.0127 13.0522L13.9957 12.8907C13.9353 12.2592 13.9047 11.9429 13.9957 11.6497C14.0866 11.3573 14.2889 11.1201 14.6944 10.6467L15.0633 10.2157C16.4888 8.54965 17.2011 7.71577 16.9521 6.9159C16.7039 6.11603 15.6583 5.87887 13.5673 5.40625L13.0266 5.28385C12.4325 5.14955 12.135 5.08239 11.8961 4.90134C11.6581 4.72028 11.5051 4.44573 11.1991 3.89661L10.9211 3.39679C9.84415 1.46554 9.30609 0.499908 8.50112 0.499908C7.69614 0.499908 7.15808 1.46554 6.08109 3.39679Z" fill="#D7D7D7"/>
</svg>
