<svg width="44" height="45" viewBox="0 0 44 45" fill="none" xmlns="http://www.w3.org/2000/svg">
<rect y="0.5" width="44" height="44" rx="22" fill="#DBEFFF"/>
<path d="M29.1368 21.6125C29.0205 21.4953 28.8823 21.4023 28.73 21.3389C28.5777 21.2754 28.4143 21.2428 28.2493 21.2428C28.0842 21.2428 27.9209 21.2754 27.7685 21.3389C27.6162 21.4023 27.478 21.4953 27.3618 21.6125L23.2493 25.7375V16.25C23.2493 15.9185 23.1176 15.6005 22.8831 15.3661C22.6487 15.1317 22.3308 15 21.9993 15C21.6677 15 21.3498 15.1317 21.1154 15.3661C20.881 15.6005 20.7493 15.9185 20.7493 16.25V25.7375L16.6368 21.6125C16.4014 21.3771 16.0821 21.2449 15.7493 21.2449C15.4164 21.2449 15.0971 21.3771 14.8618 21.6125C14.6264 21.8479 14.4941 22.1671 14.4941 22.5C14.4941 22.8329 14.6264 23.1521 14.8618 23.3875L21.1118 29.6375C21.2306 29.7513 21.3708 29.8405 21.5243 29.9C21.6739 29.9661 21.8357 30.0003 21.9993 30.0003C22.1628 30.0003 22.3246 29.9661 22.4743 29.9C22.6277 29.8405 22.7679 29.7513 22.8868 29.6375L29.1368 23.3875C29.2539 23.2713 29.3469 23.133 29.4104 22.9807C29.4738 22.8284 29.5065 22.665 29.5065 22.5C29.5065 22.335 29.4738 22.1716 29.4104 22.0193C29.3469 21.867 29.2539 21.7287 29.1368 21.6125Z" fill="#0CD241"/>
</svg>
