<svg width="16" height="18" viewBox="0 0 16 18" fill="none" xmlns="http://www.w3.org/2000/svg">
<path d="M12.9998 2.73333C11.6737 1.40725 9.87514 0.662262 7.99978 0.662262C6.12441 0.662262 4.32586 1.40725 2.99978 2.73333C1.6737 4.05941 0.928711 5.85797 0.928711 7.73333C0.928711 9.60869 1.6737 11.4072 2.99978 12.7333L7.39145 17.1333C7.46891 17.2114 7.56108 17.2734 7.66263 17.3157C7.76418 17.358 7.8731 17.3798 7.98311 17.3798C8.09312 17.3798 8.20204 17.358 8.30359 17.3157C8.40514 17.2734 8.49731 17.2114 8.57478 17.1333L12.9998 12.6917C14.3203 11.3711 15.0622 9.58004 15.0622 7.7125C15.0622 5.84495 14.3203 4.05389 12.9998 2.73333ZM11.8081 11.5L7.99978 15.325L4.19145 11.5C3.43907 10.7469 2.92684 9.7877 2.71952 8.74357C2.51221 7.69944 2.6191 6.61729 3.0267 5.6339C3.4343 4.65051 4.12429 3.81004 5.00947 3.21873C5.89465 2.62742 6.93527 2.31181 7.99978 2.31181C9.06429 2.31181 10.1049 2.62742 10.9901 3.21873C11.8753 3.81004 12.5653 4.65051 12.9729 5.6339C13.3805 6.61729 13.4874 7.69944 13.28 8.74357C13.0727 9.7877 12.5605 10.7469 11.8081 11.5ZM5.49978 5.175C4.82704 5.84981 4.44927 6.7638 4.44927 7.71666C4.44927 8.66952 4.82704 9.58352 5.49978 10.2583C5.99958 10.759 6.6361 11.1009 7.32949 11.2412C8.02287 11.3814 8.74224 11.3138 9.39734 11.0468C10.0524 10.7798 10.6141 10.3252 11.0118 9.7402C11.4096 9.15518 11.6257 8.46572 11.6331 7.75833C11.6369 7.286 11.5459 6.81771 11.3655 6.38115C11.1852 5.94459 10.9191 5.54863 10.5831 5.21666C10.2528 4.87881 9.85901 4.60961 9.4243 4.42455C8.98958 4.23949 8.52256 4.14223 8.05011 4.13835C7.57766 4.13448 7.10911 4.22408 6.67142 4.40199C6.23373 4.5799 5.83555 4.84261 5.49978 5.175ZM9.40811 9.075C9.09231 9.39561 8.67495 9.59658 8.22738 9.64354C7.77982 9.6905 7.32983 9.58053 6.95437 9.33244C6.5789 9.08434 6.30128 8.71353 6.16895 8.2834C6.03663 7.85327 6.05782 7.39053 6.22891 6.97429C6.4 6.55806 6.71036 6.21418 7.10693 6.00144C7.5035 5.78871 7.96166 5.72034 8.40306 5.80801C8.84446 5.89568 9.2417 6.13396 9.52687 6.48211C9.81204 6.83025 9.96742 7.26664 9.96644 7.71666C9.95432 8.23105 9.73852 8.7196 9.36645 9.075H9.40811Z" fill="#00172A"/>
</svg>
