<svg width="22" height="21" viewBox="0 0 22 21" fill="none" xmlns="http://www.w3.org/2000/svg">
<path d="M3.7599 9.09C4.02511 9.12448 4.29316 9.05219 4.50508 8.88903C4.71699 8.72587 4.85542 8.48522 4.88989 8.22C4.92437 7.95478 4.85208 7.68673 4.68893 7.47482C4.52577 7.2629 4.28511 7.12448 4.01989 7.09L2.25989 6.65C2.13158 6.61066 1.99666 6.59756 1.86318 6.61147C1.72969 6.62537 1.60037 6.66601 1.48292 6.73095C1.36547 6.79588 1.2623 6.8838 1.17954 6.98946C1.09679 7.09511 1.03614 7.21634 1.00123 7.34593C0.966315 7.47552 0.957842 7.6108 0.976316 7.74373C0.99479 7.87666 1.03983 8.00452 1.10876 8.11967C1.17769 8.23483 1.26909 8.33493 1.37752 8.41401C1.48595 8.4931 1.60919 8.54955 1.73989 8.58L3.49989 9.05C3.58367 9.07796 3.67159 9.09148 3.7599 9.09ZM7.61989 3.5C7.6785 3.71816 7.80923 3.91006 7.99082 4.04443C8.1724 4.1788 8.39413 4.24773 8.61989 4.24C8.70601 4.25383 8.79378 4.25383 8.8799 4.24C9.13371 4.16979 9.34958 4.00229 9.48064 3.77387C9.6117 3.54545 9.64736 3.27456 9.5799 3.02L9.10989 1.26C9.07944 1.12929 9.02299 1.00605 8.94391 0.897624C8.86482 0.789194 8.76472 0.697792 8.64956 0.628865C8.53441 0.559938 8.40656 0.514895 8.27363 0.496421C8.1407 0.477948 8.00541 0.486421 7.87582 0.521335C7.74624 0.556249 7.62501 0.616891 7.51935 0.699647C7.4137 0.782403 7.32578 0.885579 7.26084 1.00303C7.1959 1.12048 7.15527 1.2498 7.14136 1.38328C7.12745 1.51677 7.14056 1.65169 7.1799 1.78L7.61989 3.5ZM12.4499 13.5C12.3565 13.4017 12.244 13.3234 12.1194 13.2699C11.9948 13.2163 11.8605 13.1887 11.7249 13.1887C11.5893 13.1887 11.455 13.2163 11.3304 13.2699C11.2058 13.3234 11.0933 13.4017 10.9999 13.5L7.4999 17.06C7.08838 17.4548 6.54017 17.6753 5.96989 17.6753C5.39961 17.6753 4.85141 17.4548 4.43989 17.06C4.23732 16.86 4.07648 16.6218 3.9667 16.3591C3.85692 16.0965 3.80039 15.8147 3.80039 15.53C3.80039 15.2453 3.85692 14.9635 3.9667 14.7009C4.07648 14.4382 4.23732 14.2 4.43989 14L7.9999 10.5C8.10458 10.4104 8.1896 10.3 8.24962 10.176C8.30964 10.0519 8.34337 9.91677 8.34869 9.77905C8.35401 9.64133 8.33081 9.504 8.28053 9.37568C8.23026 9.24735 8.154 9.13081 8.05655 9.03335C7.95909 8.93589 7.84254 8.85964 7.71422 8.80936C7.58589 8.75909 7.44856 8.73588 7.31084 8.7412C7.17312 8.74652 7.03799 8.78025 6.91393 8.84027C6.78986 8.9003 6.67954 8.98532 6.5899 9.09L2.99989 12.58C2.61118 12.9687 2.30284 13.4302 2.09247 13.9381C1.8821 14.4459 1.77382 14.9903 1.77382 15.54C1.77382 16.0897 1.8821 16.6341 2.09247 17.1419C2.30284 17.6498 2.61118 18.1113 2.99989 18.5C3.38861 18.8887 3.85008 19.1971 4.35795 19.4074C4.86583 19.6178 5.41017 19.7261 5.9599 19.7261C6.50962 19.7261 7.05396 19.6178 7.56184 19.4074C8.06971 19.1971 8.53118 18.8887 8.9199 18.5L12.4499 14.97C12.5514 14.8764 12.6324 14.7627 12.6878 14.6362C12.7432 14.5097 12.7718 14.3731 12.7718 14.235C12.7718 14.0969 12.7432 13.9603 12.6878 13.8338C12.6324 13.7073 12.5514 13.5936 12.4499 13.5ZM4.17989 5.09C4.36616 5.27474 4.61756 5.3789 4.87989 5.38C5.0115 5.38076 5.14196 5.35554 5.2638 5.30577C5.38564 5.25601 5.49646 5.18268 5.5899 5.09C5.77615 4.90264 5.88069 4.64919 5.88069 4.385C5.88069 4.12081 5.77615 3.86736 5.5899 3.68L4.2999 2.39C4.10859 2.22617 3.86252 2.14057 3.61084 2.15029C3.35917 2.16001 3.12043 2.26434 2.94233 2.44244C2.76424 2.62053 2.6599 2.85927 2.65018 3.11095C2.64046 3.36262 2.72607 3.6087 2.88989 3.8L4.17989 5.09ZM20.2599 12.42L18.4999 11.95C18.3695 11.9049 18.2311 11.8873 18.0936 11.8983C17.956 11.9093 17.8222 11.9486 17.7006 12.0139C17.579 12.0791 17.4722 12.1688 17.3869 12.2773C17.3017 12.3858 17.2398 12.5108 17.2052 12.6443C17.1706 12.7779 17.164 12.9172 17.1858 13.0535C17.2077 13.1897 17.2575 13.32 17.3321 13.4361C17.4068 13.5521 17.5047 13.6515 17.6196 13.7279C17.7345 13.8043 17.864 13.8561 17.9999 13.88L19.7599 14.35H20.0199C20.2851 14.3845 20.5532 14.3122 20.7651 14.149C20.977 13.9859 21.1154 13.7452 21.1499 13.48C21.1844 13.2148 21.1121 12.9467 20.9489 12.7348C20.7858 12.5229 20.5451 12.3845 20.2799 12.35L20.2599 12.42ZM14.3799 17.5C14.3452 17.3732 14.2858 17.2545 14.2052 17.1507C14.1246 17.0469 14.0243 16.96 13.91 16.895C13.7958 16.83 13.6698 16.7881 13.5394 16.7718C13.409 16.7555 13.2766 16.7651 13.1499 16.8C12.8961 16.8702 12.6802 17.0377 12.5492 17.2661C12.4181 17.4945 12.3824 17.7654 12.4499 18.02L12.9199 19.78C12.9785 19.9982 13.1092 20.1901 13.2908 20.3244C13.4724 20.4588 13.6941 20.5277 13.9199 20.52C14.0063 20.5298 14.0935 20.5298 14.1799 20.52C14.3076 20.4864 14.4273 20.4278 14.5322 20.3476C14.6372 20.2674 14.7252 20.1673 14.7912 20.0529C14.8572 19.9386 14.8999 19.8123 14.9168 19.6813C14.9338 19.5504 14.9246 19.4174 14.8899 19.29L14.3799 17.5ZM17.8199 15.93C17.6286 15.7662 17.3825 15.6806 17.1308 15.6903C16.8792 15.7 16.6404 15.8043 16.4623 15.9824C16.2842 16.1605 16.1799 16.3993 16.1702 16.6509C16.1605 16.9026 16.2461 17.1487 16.4099 17.34L17.6999 18.63C17.8873 18.8162 18.1407 18.9208 18.4049 18.9208C18.6691 18.9208 18.9225 18.8162 19.1099 18.63C19.2961 18.4426 19.4007 18.1892 19.4007 17.925C19.4007 17.6608 19.2961 17.4074 19.1099 17.22L17.8199 15.93ZM20.1999 5.5C20.2154 4.66844 19.9814 3.85131 19.5279 3.1541C19.0744 2.45689 18.4224 1.91162 17.6559 1.58868C16.8895 1.26574 16.0438 1.17995 15.2281 1.3424C14.4124 1.50484 13.6641 1.90806 13.0799 2.5L9.5499 6.06C9.45534 6.15521 9.38047 6.26811 9.32955 6.39225C9.27863 6.5164 9.25266 6.64936 9.25313 6.78354C9.25359 6.91772 9.28048 7.05049 9.33226 7.17428C9.38403 7.29807 9.45969 7.41045 9.5549 7.505C9.6501 7.59955 9.763 7.67443 9.88715 7.72535C10.0113 7.77626 10.1442 7.80223 10.2784 7.80177C10.4126 7.80131 10.5454 7.77442 10.6692 7.72264C10.793 7.67086 10.9053 7.59521 10.9999 7.5L14.4999 3.94C14.9114 3.54519 15.4596 3.32474 16.0299 3.32474C16.6002 3.32474 17.1484 3.54519 17.5599 3.94C17.7625 4.13999 17.9233 4.37822 18.0331 4.64086C18.1429 4.90351 18.1994 5.18534 18.1994 5.47C18.1994 5.75466 18.1429 6.03649 18.0331 6.29914C17.9233 6.56178 17.7625 6.80001 17.5599 7L13.9999 10.5C13.8136 10.6874 13.7091 10.9408 13.7091 11.205C13.7091 11.4692 13.8136 11.7226 13.9999 11.91C14.1873 12.0963 14.4407 12.2008 14.7049 12.2008C14.9691 12.2008 15.2225 12.0963 15.4099 11.91L18.9999 8.42C19.7653 7.64035 20.1959 6.59256 20.1999 5.5Z" fill="#1D7BC7"/>
</svg>
