<svg width="24" height="25" viewBox="0 0 24 25" fill="none" xmlns="http://www.w3.org/2000/svg">
<path d="M3.63702 3.93383L12.377 12.5048L3.70202 21.1548C3.56009 20.97 3.44992 20.7628 3.37602 20.5418C3.3378 20.2916 3.3378 20.0371 3.37602 19.7868V5.06683C3.35002 4.67183 3.44102 4.27683 3.63602 3.93383M16.142 8.76683L13.289 11.5928L4.65302 3.09983C4.93302 3.00283 5.23302 2.97583 5.52602 3.02183C5.98602 3.14783 6.42502 3.34183 6.82802 3.59483L14.644 7.91983C15.152 8.19283 15.647 8.47983 16.142 8.76683ZM13.29 13.4298L16.129 16.2178L14.071 17.3638L7.79202 20.8538C7.27202 21.1408 6.75002 21.4148 6.24202 21.7278C6.02464 21.8632 5.7809 21.9506 5.52706 21.9842C5.27322 22.0178 5.01513 21.9969 4.77002 21.9228L13.29 13.4298ZM20.65 12.5048C20.6573 12.8545 20.569 13.1995 20.3945 13.5027C20.22 13.8058 19.966 14.0555 19.66 14.2248L17.314 15.5268L14.227 12.5048L17.327 9.43083C18.122 9.87383 18.904 10.3168 19.685 10.7338C19.9965 10.9079 20.2523 11.1666 20.4229 11.48C20.5935 11.7934 20.6729 12.1487 20.65 12.5048Z" fill="#FAFDFF"/>
</svg>
