<svg width="15" height="13" viewBox="0 0 15 13" fill="none" xmlns="http://www.w3.org/2000/svg">
<path d="M12.4577 2.25H10.3327V1.54167C10.3327 1.16594 10.1834 0.805609 9.91775 0.539932C9.65207 0.274255 9.29174 0.125 8.91602 0.125H6.08268C5.70696 0.125 5.34662 0.274255 5.08095 0.539932C4.81527 0.805609 4.66602 1.16594 4.66602 1.54167V2.25H2.54102C1.97743 2.25 1.43693 2.47388 1.03841 2.8724C0.639899 3.27091 0.416016 3.81141 0.416016 4.375V10.75C0.416016 11.3136 0.639899 11.8541 1.03841 12.2526C1.43693 12.6511 1.97743 12.875 2.54102 12.875H12.4577C13.0213 12.875 13.5618 12.6511 13.9603 12.2526C14.3588 11.8541 14.5827 11.3136 14.5827 10.75V4.375C14.5827 3.81141 14.3588 3.27091 13.9603 2.8724C13.5618 2.47388 13.0213 2.25 12.4577 2.25ZM6.08268 1.54167H8.91602V2.25H6.08268V1.54167ZM13.166 10.75C13.166 10.9379 13.0914 11.118 12.9585 11.2509C12.8257 11.3837 12.6455 11.4583 12.4577 11.4583H2.54102C2.35315 11.4583 2.17299 11.3837 2.04015 11.2509C1.90731 11.118 1.83268 10.9379 1.83268 10.75V6.77625L5.14768 7.91667C5.22289 7.92687 5.29914 7.92687 5.37435 7.91667H9.62435C9.70117 7.91525 9.77743 7.90333 9.85102 7.88125L13.166 6.77625V10.75ZM13.166 5.28167L9.51102 6.5H5.48768L1.83268 5.28167V4.375C1.83268 4.18714 1.90731 4.00697 2.04015 3.87413C2.17299 3.74129 2.35315 3.66667 2.54102 3.66667H12.4577C12.6455 3.66667 12.8257 3.74129 12.9585 3.87413C13.0914 4.00697 13.166 4.18714 13.166 4.375V5.28167Z" fill="#FAFDFF"/>
</svg>
