<svg width="44" height="45" viewBox="0 0 44 45" fill="none" xmlns="http://www.w3.org/2000/svg">
<rect y="0.5" width="44" height="44" rx="22" fill="#DBEFFF"/>
<path d="M29.1368 23.3875C29.0205 23.5047 28.8823 23.5977 28.73 23.6611C28.5777 23.7246 28.4143 23.7572 28.2493 23.7572C28.0842 23.7572 27.9209 23.7246 27.7685 23.6611C27.6162 23.5977 27.478 23.5047 27.3618 23.3875L23.2493 19.2625V28.75C23.2493 29.0815 23.1176 29.3995 22.8831 29.6339C22.6487 29.8683 22.3308 30 21.9993 30C21.6677 30 21.3498 29.8683 21.1154 29.6339C20.881 29.3995 20.7493 29.0815 20.7493 28.75V19.2625L16.6368 23.3875C16.4014 23.6229 16.0821 23.7551 15.7493 23.7551C15.4164 23.7551 15.0971 23.6229 14.8618 23.3875C14.6264 23.1521 14.4941 22.8329 14.4941 22.5C14.4941 22.1671 14.6264 21.8479 14.8618 21.6125L21.1118 15.3625C21.2306 15.2487 21.3708 15.1595 21.5243 15.1C21.6739 15.0339 21.8357 14.9997 21.9993 14.9997C22.1628 14.9997 22.3246 15.0339 22.4743 15.1C22.6277 15.1595 22.7679 15.2487 22.8868 15.3625L29.1368 21.6125C29.2539 21.7287 29.3469 21.867 29.4104 22.0193C29.4738 22.1716 29.5065 22.335 29.5065 22.5C29.5065 22.665 29.4738 22.8284 29.4104 22.9807C29.3469 23.133 29.2539 23.2713 29.1368 23.3875Z" fill="#D21C0C"/>
</svg>
