<svg width="20" height="15" viewBox="0 0 20 15" fill="none" xmlns="http://www.w3.org/2000/svg">
<path d="M10.2487 7.68329C10.6933 7.2984 11.05 6.82236 11.2944 6.28748C11.5389 5.75259 11.6654 5.17138 11.6654 4.58329C11.6654 3.47822 11.2264 2.41842 10.445 1.63701C9.66357 0.855613 8.60377 0.416626 7.4987 0.416626C6.39363 0.416626 5.33382 0.855613 4.55242 1.63701C3.77102 2.41842 3.33203 3.47822 3.33203 4.58329C3.33202 5.17138 3.45853 5.75259 3.70297 6.28748C3.94741 6.82236 4.30405 7.2984 4.7487 7.68329C3.58215 8.21153 2.59242 9.06457 1.89785 10.1404C1.20328 11.2163 0.833258 12.4694 0.832031 13.75C0.832031 13.971 0.919829 14.1829 1.07611 14.3392C1.23239 14.4955 1.44435 14.5833 1.66536 14.5833C1.88638 14.5833 2.09834 14.4955 2.25462 14.3392C2.4109 14.1829 2.4987 13.971 2.4987 13.75C2.4987 12.4239 3.02548 11.1521 3.96316 10.2144C4.90085 9.27674 6.17262 8.74996 7.4987 8.74996C8.82478 8.74996 10.0965 9.27674 11.0342 10.2144C11.9719 11.1521 12.4987 12.4239 12.4987 13.75C12.4987 13.971 12.5865 14.1829 12.7428 14.3392C12.8991 14.4955 13.111 14.5833 13.332 14.5833C13.553 14.5833 13.765 14.4955 13.9213 14.3392C14.0776 14.1829 14.1654 13.971 14.1654 13.75C14.1641 12.4694 13.7941 11.2163 13.0995 10.1404C12.405 9.06457 11.4152 8.21153 10.2487 7.68329ZM7.4987 7.08329C7.00424 7.08329 6.5209 6.93667 6.10977 6.66197C5.69865 6.38726 5.37822 5.99682 5.189 5.54C4.99978 5.08319 4.95027 4.58052 5.04673 4.09557C5.1432 3.61061 5.3813 3.16516 5.73093 2.81553C6.08056 2.46589 6.52602 2.22779 7.01097 2.13133C7.49592 2.03487 7.99859 2.08438 8.45541 2.27359C8.91222 2.46281 9.30267 2.78324 9.57737 3.19437C9.85207 3.60549 9.9987 4.08884 9.9987 4.58329C9.9987 5.24633 9.73531 5.88222 9.26647 6.35106C8.79762 6.8199 8.16174 7.08329 7.4987 7.08329ZM15.6154 7.34996C16.1487 6.7494 16.497 6.00751 16.6185 5.21358C16.74 4.41965 16.6295 3.60752 16.3002 2.87496C15.9709 2.1424 15.4369 1.52062 14.7624 1.08448C14.088 0.648334 13.3019 0.416411 12.4987 0.416626C12.2777 0.416626 12.0657 0.504423 11.9094 0.660704C11.7532 0.816984 11.6654 1.02895 11.6654 1.24996C11.6654 1.47097 11.7532 1.68293 11.9094 1.83922C12.0657 1.9955 12.2777 2.08329 12.4987 2.08329C13.1617 2.08329 13.7976 2.34669 14.2665 2.81553C14.7353 3.28437 14.9987 3.92025 14.9987 4.58329C14.9975 5.02099 14.8814 5.45071 14.6621 5.82948C14.4427 6.20824 14.1278 6.52278 13.7487 6.74163C13.6251 6.81289 13.522 6.91468 13.449 7.03724C13.376 7.15981 13.3358 7.29904 13.332 7.44163C13.3285 7.5831 13.3611 7.72312 13.4268 7.84851C13.4924 7.97389 13.5888 8.0805 13.707 8.15829L14.032 8.37496L14.1404 8.43329C15.1449 8.90973 15.9923 9.66329 16.5828 10.6052C17.1734 11.5472 17.4825 12.6382 17.4737 13.75C17.4737 13.971 17.5615 14.1829 17.7178 14.3392C17.8741 14.4955 18.086 14.5833 18.307 14.5833C18.528 14.5833 18.74 14.4955 18.8963 14.3392C19.0526 14.1829 19.1404 13.971 19.1404 13.75C19.1472 12.4712 18.8269 11.2118 18.2099 10.0917C17.593 8.97152 16.6998 8.02772 15.6154 7.34996Z" fill="#FAFDFF"/>
</svg>
