<svg width="15" height="15" viewBox="0 0 15 15" fill="none" xmlns="http://www.w3.org/2000/svg">
<path d="M9.48977 7.69817C9.93812 7.21667 10.1907 6.58522 10.1981 5.92734C10.1981 5.21722 9.91601 4.53619 9.41388 4.03406C8.91175 3.53193 8.23072 3.24984 7.5206 3.24984C6.81048 3.24984 6.12945 3.53193 5.62732 4.03406C5.12519 4.53619 4.8431 5.21722 4.8431 5.92734C4.85049 6.58522 5.10307 7.21667 5.55143 7.69817C4.92715 8.00904 4.38992 8.47021 3.98808 9.04021C3.58624 9.6102 3.33238 10.2711 3.24935 10.9636C3.22868 11.1514 3.28349 11.3398 3.40172 11.4873C3.51995 11.6347 3.6919 11.7292 3.87977 11.7498C4.06763 11.7705 4.256 11.7157 4.40345 11.5975C4.5509 11.4792 4.64535 11.3073 4.66602 11.1194C4.75054 10.4331 5.08311 9.80146 5.60108 9.34338C6.11904 8.8853 6.78664 8.63245 7.4781 8.63245C8.16956 8.63245 8.83716 8.8853 9.35512 9.34338C9.87308 9.80146 10.2057 10.4331 10.2902 11.1194C10.3099 11.301 10.399 11.468 10.5389 11.5855C10.6788 11.703 10.8587 11.7619 11.041 11.7498H11.1189C11.3046 11.7285 11.4743 11.6346 11.5911 11.4886C11.7078 11.3427 11.7622 11.1565 11.7423 10.9707C11.6654 10.2819 11.4195 9.62273 11.0266 9.05183C10.6336 8.48092 10.1057 8.01593 9.48977 7.69817ZM7.49935 7.18817C7.24998 7.18817 7.00621 7.11422 6.79887 6.97568C6.59152 6.83714 6.42992 6.64022 6.33449 6.40984C6.23906 6.17945 6.21409 5.92594 6.26274 5.68136C6.31139 5.43678 6.43147 5.21212 6.60781 5.03579C6.78414 4.85946 7.00879 4.73938 7.25337 4.69073C7.49795 4.64208 7.75146 4.66705 7.98185 4.76248C8.21224 4.85791 8.40915 5.01951 8.54769 5.22686C8.68624 5.4342 8.76018 5.67797 8.76018 5.92734C8.76018 6.26173 8.62734 6.58243 8.39089 6.81888C8.15444 7.05533 7.83374 7.18817 7.49935 7.18817ZM12.4577 0.416504H2.54102C1.97743 0.416504 1.43693 0.640387 1.03841 1.0389C0.639899 1.43742 0.416016 1.97792 0.416016 2.5415V12.4582C0.416016 13.0218 0.639899 13.5623 1.03841 13.9608C1.43693 14.3593 1.97743 14.5832 2.54102 14.5832H12.4577C13.0213 14.5832 13.5618 14.3593 13.9603 13.9608C14.3588 13.5623 14.5827 13.0218 14.5827 12.4582V2.5415C14.5827 1.97792 14.3588 1.43742 13.9603 1.0389C13.5618 0.640387 13.0213 0.416504 12.4577 0.416504ZM13.166 12.4582C13.166 12.646 13.0914 12.8262 12.9585 12.959C12.8257 13.0919 12.6455 13.1665 12.4577 13.1665H2.54102C2.35315 13.1665 2.17299 13.0919 2.04015 12.959C1.90731 12.8262 1.83268 12.646 1.83268 12.4582V2.5415C1.83268 2.35364 1.90731 2.17347 2.04015 2.04064C2.17299 1.9078 2.35315 1.83317 2.54102 1.83317H12.4577C12.6455 1.83317 12.8257 1.9078 12.9585 2.04064C13.0914 2.17347 13.166 2.35364 13.166 2.5415V12.4582Z" fill="#888888"/>
</svg>
