<svg width="15" height="15" viewBox="0 0 15 15" fill="none" xmlns="http://www.w3.org/2000/svg">
<path d="M9.47938 0.625L9.85313 1.32375C10.1056 1.79563 10.2319 2.03188 10.1481 2.13313C10.065 2.23438 9.79 2.1525 9.23938 1.98938C8.67471 1.82224 8.08889 1.73741 7.5 1.7375C4.22063 1.7375 1.5625 4.3175 1.5625 7.5C1.56151 8.51455 1.83584 9.51035 2.35625 10.3813M5.52125 14.375L5.1475 13.6762C4.895 13.2037 4.76875 12.9675 4.8525 12.8669C4.93563 12.7656 5.21063 12.8469 5.76125 13.0106C6.31125 13.1737 6.89563 13.2619 7.50063 13.2619C10.78 13.2619 13.4381 10.6819 13.4381 7.49937C13.439 6.48504 13.1647 5.48947 12.6444 4.61875" stroke="#1D7BC7" stroke-width="1.5" stroke-linecap="round" stroke-linejoin="round"/>
</svg>
