<svg width="20" height="20" viewBox="0 0 20 20" fill="none" xmlns="http://www.w3.org/2000/svg">
<path d="M13.093 10.5915C13.1688 10.5123 13.2283 10.4188 13.268 10.3165C13.3513 10.1136 13.3513 9.88606 13.268 9.68317C13.2283 9.58088 13.1688 9.48743 13.093 9.40817L10.593 6.90817C10.4361 6.75125 10.2232 6.6631 10.0013 6.6631C9.77939 6.6631 9.56656 6.75125 9.40964 6.90817C9.25272 7.06509 9.16456 7.27792 9.16456 7.49984C9.16456 7.72176 9.25272 7.93459 9.40964 8.09151L10.493 9.16651H7.50131C7.28029 9.16651 7.06833 9.25431 6.91205 9.41059C6.75577 9.56687 6.66797 9.77883 6.66797 9.99984C6.66797 10.2209 6.75577 10.4328 6.91205 10.5891C7.06833 10.7454 7.28029 10.8332 7.50131 10.8332H10.493L9.40964 11.9082C9.33153 11.9856 9.26954 12.0778 9.22723 12.1794C9.18492 12.2809 9.16314 12.3898 9.16314 12.4998C9.16314 12.6099 9.18492 12.7188 9.22723 12.8203C9.26954 12.9219 9.33153 13.014 9.40964 13.0915C9.48711 13.1696 9.57928 13.2316 9.68083 13.2739C9.78237 13.3162 9.8913 13.338 10.0013 13.338C10.1113 13.338 10.2202 13.3162 10.3218 13.2739C10.4233 13.2316 10.5155 13.1696 10.593 13.0915L13.093 10.5915ZM18.3346 9.99984C18.3346 8.35166 17.8459 6.7405 16.9302 5.37009C16.0145 3.99968 14.7131 2.93158 13.1903 2.30084C11.6676 1.67011 9.99206 1.50509 8.37555 1.82663C6.75905 2.14817 5.27419 2.94185 4.10875 4.10728C2.94331 5.27272 2.14964 6.75758 1.8281 8.37409C1.50655 9.9906 1.67158 11.6662 2.30231 13.1889C2.93304 14.7116 4.00114 16.0131 5.37155 16.9288C6.74196 17.8444 8.35313 18.3332 10.0013 18.3332C12.2114 18.3332 14.3311 17.4552 15.8939 15.8924C17.4567 14.3296 18.3346 12.21 18.3346 9.99984ZM3.33464 9.99984C3.33464 8.6813 3.72563 7.39237 4.45818 6.29604C5.19072 5.19971 6.23191 4.34523 7.45008 3.84064C8.66826 3.33606 10.0087 3.20404 11.3019 3.46127C12.5951 3.71851 13.783 4.35345 14.7154 5.2858C15.6477 6.21815 16.2826 7.40603 16.5399 8.69924C16.7971 9.99245 16.6651 11.3329 16.1605 12.5511C15.6559 13.7692 14.8014 14.8104 13.7051 15.543C12.6088 16.2755 11.3198 16.6665 10.0013 16.6665C8.2332 16.6665 6.5375 15.9641 5.28726 14.7139C4.03702 13.4636 3.33464 11.768 3.33464 9.99984Z" fill="#FAFDFF"/>
</svg>
