<svg width="13" height="14" viewBox="0 0 13 14" fill="none" xmlns="http://www.w3.org/2000/svg">
<path d="M8.81875 6.55625C8.87565 6.61569 8.92025 6.68578 8.95 6.7625C9.01251 6.91466 9.01251 7.08534 8.95 7.2375C8.92025 7.31422 8.87565 7.38431 8.81875 7.44375L6.94375 9.31875C6.82606 9.43644 6.66644 9.50256 6.5 9.50256C6.33356 9.50256 6.17394 9.43644 6.05625 9.31875C5.93856 9.20106 5.87244 9.04144 5.87244 8.875C5.87244 8.70856 5.93856 8.54894 6.05625 8.43125L6.86875 7.625H4.625C4.45924 7.625 4.30027 7.55915 4.18306 7.44194C4.06585 7.32473 4 7.16576 4 7C4 6.83424 4.06585 6.67527 4.18306 6.55806C4.30027 6.44085 4.45924 6.375 4.625 6.375H6.86875L6.05625 5.56875C5.99767 5.51065 5.95117 5.44152 5.91944 5.36536C5.88771 5.2892 5.87138 5.20751 5.87138 5.125C5.87138 5.04249 5.88771 4.9608 5.91944 4.88464C5.95117 4.80848 5.99767 4.73935 6.05625 4.68125C6.11435 4.62267 6.18348 4.57617 6.25964 4.54444C6.3358 4.51271 6.41749 4.49638 6.5 4.49638C6.58251 4.49638 6.6642 4.51271 6.74036 4.54444C6.81652 4.57617 6.88565 4.62267 6.94375 4.68125L8.81875 6.55625ZM12.75 7C12.75 8.23613 12.3834 9.44451 11.6967 10.4723C11.0099 11.5001 10.0338 12.3012 8.89177 12.7742C7.74973 13.2473 6.49307 13.3711 5.28069 13.1299C4.0683 12.8888 2.95466 12.2935 2.08058 11.4194C1.2065 10.5453 0.611249 9.4317 0.370091 8.21931C0.128934 7.00693 0.252705 5.75027 0.725752 4.60823C1.1988 3.46619 1.99988 2.49007 3.02769 1.80331C4.05549 1.11656 5.26387 0.75 6.5 0.75C7.32076 0.75 8.13349 0.911661 8.89177 1.22575C9.65006 1.53984 10.3391 2.00022 10.9194 2.58058C12.0915 3.75269 12.75 5.3424 12.75 7ZM1.5 7C1.5 7.98891 1.79325 8.9556 2.34265 9.77785C2.89206 10.6001 3.67295 11.241 4.58658 11.6194C5.50021 11.9978 6.50555 12.0969 7.47545 11.9039C8.44536 11.711 9.33627 11.2348 10.0355 10.5355C10.7348 9.83627 11.211 8.94536 11.4039 7.97545C11.5969 7.00555 11.4978 6.00021 11.1194 5.08658C10.741 4.17295 10.1001 3.39206 9.27785 2.84265C8.45561 2.29324 7.48891 2 6.5 2C5.17392 2 3.90215 2.52678 2.96447 3.46447C2.02678 4.40215 1.5 5.67392 1.5 7Z" fill="#B3B3B3"/>
</svg>
