<svg width="20" height="20" viewBox="0 0 20 20" fill="none" xmlns="http://www.w3.org/2000/svg">
<path d="M15.0009 11.6667C14.5085 11.6699 14.023 11.7822 13.5792 11.9955C13.1354 12.2087 12.7444 12.5176 12.4342 12.9L8.18419 10.9417C8.38401 10.3298 8.38401 9.6702 8.18419 9.05833L12.4342 7.09999C12.9355 7.70497 13.6345 8.11339 14.4077 8.25319C15.1808 8.39299 15.9785 8.25518 16.66 7.86408C17.3414 7.47298 17.8628 6.85372 18.1321 6.11561C18.4015 5.3775 18.4014 4.56798 18.1319 3.82992C17.8625 3.09185 17.341 2.4727 16.6595 2.08172C15.9779 1.69074 15.1802 1.55307 14.4071 1.69301C13.6339 1.83296 12.935 2.24151 12.4338 2.84657C11.9326 3.45163 11.6612 4.21431 11.6675 4.99999C11.67 5.19852 11.6895 5.39647 11.7259 5.59166L7.32586 7.61666C6.85676 7.15798 6.26273 6.84792 5.6182 6.72535C4.97366 6.60278 4.30729 6.67313 3.70257 6.9276C3.09784 7.18207 2.58166 7.60934 2.21869 8.15588C1.85572 8.70241 1.66211 9.34391 1.66211 9.99999C1.66211 10.6561 1.85572 11.2976 2.21869 11.8441C2.58166 12.3906 3.09784 12.8179 3.70257 13.0724C4.30729 13.3269 4.97366 13.3972 5.6182 13.2746C6.26273 13.1521 6.85676 12.842 7.32586 12.3833L11.7259 14.4083C11.6895 14.6035 11.67 14.8015 11.6675 15C11.6675 15.6593 11.863 16.3037 12.2293 16.8519C12.5956 17.4001 13.1162 17.8273 13.7252 18.0796C14.3343 18.3319 15.0046 18.3979 15.6512 18.2693C16.2978 18.1407 16.8917 17.8232 17.3579 17.357C17.8241 16.8908 18.1415 16.2969 18.2701 15.6503C18.3988 15.0037 18.3328 14.3335 18.0805 13.7244C17.8282 13.1153 17.4009 12.5947 16.8528 12.2284C16.3046 11.8622 15.6601 11.6667 15.0009 11.6667ZM15.0009 3.33333C15.3305 3.33333 15.6527 3.43108 15.9268 3.61421C16.2009 3.79735 16.4145 4.05764 16.5407 4.36219C16.6668 4.66673 16.6998 5.00184 16.6355 5.32514C16.5712 5.64845 16.4125 5.94542 16.1794 6.1785C15.9463 6.41159 15.6493 6.57033 15.326 6.63464C15.0027 6.69894 14.6676 6.66594 14.3631 6.53979C14.0585 6.41365 13.7982 6.20003 13.6151 5.92594C13.4319 5.65186 13.3342 5.32963 13.3342 4.99999C13.3342 4.55797 13.5098 4.13404 13.8223 3.82148C14.1349 3.50892 14.5588 3.33333 15.0009 3.33333ZM5.00086 11.6667C4.67122 11.6667 4.34899 11.5689 4.07491 11.3858C3.80083 11.2026 3.5872 10.9423 3.46106 10.6378C3.33491 10.3333 3.30191 9.99815 3.36622 9.67484C3.43052 9.35154 3.58926 9.05457 3.82235 8.82148C4.05543 8.5884 4.35241 8.42966 4.67571 8.36535C4.99901 8.30104 5.33412 8.33405 5.63866 8.46019C5.94321 8.58634 6.2035 8.79996 6.38664 9.07404C6.56978 9.34812 6.66752 9.67036 6.66752 9.99999C6.66752 10.442 6.49193 10.8659 6.17937 11.1785C5.86681 11.4911 5.44289 11.6667 5.00086 11.6667ZM15.0009 16.6667C14.6712 16.6667 14.349 16.5689 14.0749 16.3858C13.8008 16.2026 13.5872 15.9423 13.4611 15.6378C13.3349 15.3333 13.3019 14.9981 13.3662 14.6748C13.4305 14.3515 13.5893 14.0546 13.8223 13.8215C14.0554 13.5884 14.3524 13.4297 14.6757 13.3654C14.999 13.301 15.3341 13.334 15.6387 13.4602C15.9432 13.5863 16.2035 13.8 16.3866 14.074C16.5698 14.3481 16.6675 14.6704 16.6675 15C16.6675 15.442 16.4919 15.8659 16.1794 16.1785C15.8668 16.4911 15.4429 16.6667 15.0009 16.6667Z" fill="#B3B3B3"/>
</svg>
