<svg width="31" height="31" viewBox="0 0 31 31" fill="none" xmlns="http://www.w3.org/2000/svg">
<path d="M24.2491 18.4167C23.3874 18.4224 22.5378 18.6189 21.7611 18.9921C20.9845 19.3652 20.3002 19.9058 19.7574 20.575L12.3199 17.1479C12.6696 16.0771 12.6696 14.9229 12.3199 13.8521L19.7574 10.425C20.6348 11.4837 21.8579 12.1985 23.2109 12.4431C24.564 12.6878 25.96 12.4466 27.1525 11.7622C28.3451 11.0777 29.2575 9.99403 29.7288 8.70234C30.2001 7.41064 30.2 5.99398 29.7285 4.70237C29.2569 3.41076 28.3443 2.32723 27.1516 1.64302C25.9589 0.958807 24.5629 0.71789 23.2099 0.962789C21.8569 1.20769 20.6339 1.92266 19.7567 2.98152C18.8795 4.04038 18.4046 5.37506 18.4157 6.75C18.4201 7.09742 18.4543 7.44383 18.5178 7.78542L10.8178 11.3292C9.99688 10.5265 8.95733 9.98388 7.8294 9.76938C6.70147 9.55487 5.53532 9.678 4.47705 10.1233C3.41878 10.5686 2.51546 11.3164 1.88027 12.2728C1.24507 13.2292 0.90625 14.3519 0.90625 15.5C0.90625 16.6482 1.24507 17.7708 1.88027 18.7272C2.51546 19.6836 3.41878 20.4314 4.47705 20.8767C5.53532 21.322 6.70147 21.4451 7.8294 21.2306C8.95733 21.0161 9.99688 20.4735 10.8178 19.6708L18.5178 23.2146C18.4543 23.5562 18.4201 23.9026 18.4157 24.25C18.4157 25.4037 18.7578 26.5315 19.3988 27.4908C20.0398 28.4501 20.9508 29.1978 22.0167 29.6393C23.0826 30.0808 24.2555 30.1963 25.3871 29.9713C26.5186 29.7462 27.558 29.1906 28.3738 28.3748C29.1897 27.559 29.7452 26.5196 29.9703 25.388C30.1954 24.2565 30.0799 23.0836 29.6384 22.0177C29.1968 20.9518 28.4492 20.0407 27.4899 19.3998C26.5306 18.7588 25.4028 18.4167 24.2491 18.4167ZM24.2491 3.83334C24.8259 3.83334 25.3898 4.0044 25.8695 4.32488C26.3491 4.64537 26.723 5.10089 26.9437 5.63384C27.1645 6.1668 27.2222 6.75324 27.1097 7.31902C26.9971 7.8848 26.7194 8.4045 26.3115 8.8124C25.9035 9.2203 25.3839 9.49809 24.8181 9.61063C24.2523 9.72317 23.6658 9.66541 23.1329 9.44465C22.5999 9.2239 22.1444 8.85006 21.8239 8.37042C21.5035 7.89077 21.3324 7.32687 21.3324 6.75C21.3324 5.97646 21.6397 5.23459 22.1867 4.68761C22.7336 4.14063 23.4755 3.83334 24.2491 3.83334ZM6.74906 18.4167C6.1722 18.4167 5.60829 18.2456 5.12865 17.9251C4.649 17.6046 4.27517 17.1491 4.05441 16.6162C3.83365 16.0832 3.7759 15.4968 3.88844 14.931C4.00098 14.3652 4.27876 13.8455 4.68666 13.4376C5.09457 13.0297 5.61427 12.7519 6.18005 12.6394C6.74582 12.5268 7.33227 12.5846 7.86522 12.8054C8.39817 13.0261 8.85369 13.3999 9.17418 13.8796C9.49467 14.3592 9.66573 14.9231 9.66573 15.5C9.66573 16.2736 9.35843 17.0154 8.81145 17.5624C8.26447 18.1094 7.52261 18.4167 6.74906 18.4167ZM24.2491 27.1667C23.6722 27.1667 23.1083 26.9956 22.6286 26.6751C22.149 26.3546 21.7752 25.8991 21.5544 25.3662C21.3337 24.8332 21.2759 24.2468 21.3884 23.681C21.501 23.1152 21.7788 22.5955 22.1867 22.1876C22.5946 21.7797 23.1143 21.5019 23.68 21.3894C24.2458 21.2768 24.8323 21.3346 25.3652 21.5554C25.8982 21.7761 26.3537 22.1499 26.6742 22.6296C26.9947 23.1092 27.1657 23.6731 27.1657 24.25C27.1657 25.0236 26.8584 25.7654 26.3115 26.3124C25.7645 26.8594 25.0226 27.1667 24.2491 27.1667Z" fill="#00172A"/>
</svg>
