<svg width="9" height="9" viewBox="0 0 9 9" fill="none" xmlns="http://www.w3.org/2000/svg">
<path d="M8.94044 0.465C8.86434 0.281738 8.7187 0.136106 8.53544 0.0599999C8.44528 0.0215692 8.34845 0.00118499 8.25044 0H0.750443C0.55153 0 0.360765 0.0790178 0.220113 0.21967C0.0794603 0.360322 0.000442505 0.551088 0.000442505 0.75C0.000442505 0.948912 0.0794603 1.13968 0.220113 1.28033C0.360765 1.42098 0.55153 1.5 0.750443 1.5H6.44294L0.217942 7.7175C0.147646 7.78722 0.0918506 7.87017 0.0537741 7.96157C0.0156976 8.05296 -0.00390625 8.15099 -0.00390625 8.25C-0.00390625 8.34901 0.0156976 8.44704 0.0537741 8.53843C0.0918506 8.62983 0.147646 8.71278 0.217942 8.7825C0.287665 8.8528 0.370615 8.90859 0.46201 8.94667C0.553404 8.98475 0.651434 9.00435 0.750443 9.00435C0.849451 9.00435 0.947481 8.98475 1.03888 8.94667C1.13027 8.90859 1.21322 8.8528 1.28294 8.7825L7.50044 2.5575V8.25C7.50044 8.44891 7.57946 8.63968 7.72011 8.78033C7.86076 8.92098 8.05153 9 8.25044 9C8.44936 9 8.64012 8.92098 8.78077 8.78033C8.92143 8.63968 9.00044 8.44891 9.00044 8.25V0.75C8.99926 0.651992 8.97887 0.555167 8.94044 0.465Z" fill="#1D7BC7"/>
</svg>
