<svg width="15" height="15" viewBox="0 0 15 15" fill="none" xmlns="http://www.w3.org/2000/svg">
<path d="M3.95768 6.08317H5.37435C5.56221 6.08317 5.74238 6.00854 5.87522 5.8757C6.00805 5.74287 6.08268 5.5627 6.08268 5.37484C6.08268 5.18698 6.00805 5.00681 5.87522 4.87397C5.74238 4.74113 5.56221 4.6665 5.37435 4.6665H3.95768C3.76982 4.6665 3.58965 4.74113 3.45682 4.87397C3.32398 5.00681 3.24935 5.18698 3.24935 5.37484C3.24935 5.5627 3.32398 5.74287 3.45682 5.8757C3.58965 6.00854 3.76982 6.08317 3.95768 6.08317ZM13.8743 1.83317H8.20768V1.12484C8.20768 0.936976 8.13305 0.756808 8.00022 0.62397C7.86738 0.491132 7.68721 0.416504 7.49935 0.416504C7.31149 0.416504 7.13132 0.491132 6.99848 0.62397C6.86564 0.756808 6.79102 0.936976 6.79102 1.12484V1.83317H1.12435C0.936487 1.83317 0.75632 1.9078 0.623482 2.04064C0.490643 2.17347 0.416016 2.35364 0.416016 2.5415V9.62484C0.416016 10.1884 0.639899 10.7289 1.03841 11.1274C1.43693 11.526 1.97743 11.7498 2.54102 11.7498H5.79227L4.1631 13.3719C4.09671 13.4378 4.04401 13.5161 4.00805 13.6024C3.97209 13.6887 3.95358 13.7813 3.95358 13.8748C3.95358 13.9683 3.97209 14.0609 4.00805 14.1472C4.04401 14.2336 4.09671 14.3119 4.1631 14.3778C4.22895 14.4441 4.30729 14.4968 4.39361 14.5328C4.47992 14.5688 4.57251 14.5873 4.66602 14.5873C4.75952 14.5873 4.85211 14.5688 4.93842 14.5328C5.02474 14.4968 5.10308 14.4441 5.16893 14.3778L6.79102 12.7486V13.8748C6.79102 14.0627 6.86564 14.2429 6.99848 14.3757C7.13132 14.5085 7.31149 14.5832 7.49935 14.5832C7.68721 14.5832 7.86738 14.5085 8.00022 14.3757C8.13305 14.2429 8.20768 14.0627 8.20768 13.8748V12.7486L9.82977 14.3778C9.89561 14.4441 9.97396 14.4968 10.0603 14.5328C10.1466 14.5688 10.2392 14.5873 10.3327 14.5873C10.4262 14.5873 10.5188 14.5688 10.6051 14.5328C10.6914 14.4968 10.7697 14.4441 10.8356 14.3778C10.902 14.3119 10.9547 14.2336 10.9906 14.1472C11.0266 14.0609 11.0451 13.9683 11.0451 13.8748C11.0451 13.7813 11.0266 13.6887 10.9906 13.6024C10.9547 13.5161 10.902 13.4378 10.8356 13.3719L9.20643 11.7498H12.4577C13.0213 11.7498 13.5618 11.526 13.9603 11.1274C14.3588 10.7289 14.5827 10.1884 14.5827 9.62484V2.5415C14.5827 2.35364 14.5081 2.17347 14.3752 2.04064C14.2424 1.9078 14.0622 1.83317 13.8743 1.83317ZM13.166 9.62484C13.166 9.8127 13.0914 9.99287 12.9585 10.1257C12.8257 10.2585 12.6455 10.3332 12.4577 10.3332H2.54102C2.35315 10.3332 2.17299 10.2585 2.04015 10.1257C1.90731 9.99287 1.83268 9.8127 1.83268 9.62484V3.24984H13.166V9.62484ZM3.95768 8.9165H8.20768C8.39554 8.9165 8.57571 8.84188 8.70855 8.70904C8.84139 8.5762 8.91602 8.39603 8.91602 8.20817C8.91602 8.02031 8.84139 7.84014 8.70855 7.7073C8.57571 7.57446 8.39554 7.49984 8.20768 7.49984H3.95768C3.76982 7.49984 3.58965 7.57446 3.45682 7.7073C3.32398 7.84014 3.24935 8.02031 3.24935 8.20817C3.24935 8.39603 3.32398 8.5762 3.45682 8.70904C3.58965 8.84188 3.76982 8.9165 3.95768 8.9165Z" fill="#FAFDFF"/>
</svg>
