<svg width="24" height="25" viewBox="0 0 24 25" fill="none" xmlns="http://www.w3.org/2000/svg">
<path d="M14.94 5.69C15.3181 5.25428 15.6063 4.74817 15.7882 4.20074C15.9701 3.6533 16.0421 3.07533 16 2.5C14.8394 2.59369 13.762 3.13956 13 4.02C12.6351 4.44198 12.3586 4.93288 12.1868 5.46364C12.015 5.99441 11.9515 6.55424 12 7.11C12.5661 7.11472 13.1258 6.9891 13.6356 6.74286C14.1454 6.49662 14.5917 6.13637 14.94 5.69ZM17.46 13.13C17.4667 12.3637 17.6685 11.6118 18.0465 10.9452C18.4244 10.2786 18.9659 9.71926 19.62 9.32C19.2072 8.72524 18.6615 8.23483 18.0262 7.88767C17.3909 7.54052 16.6835 7.34615 15.96 7.32C14.4 7.16 12.96 8.23 12.13 8.23C11.3 8.23 10.13 7.34 8.83 7.36C7.98013 7.388 7.15202 7.63578 6.42645 8.07919C5.70088 8.52259 5.10261 9.14648 4.69 9.89C2.93 12.95 4.24 17.5 6 19.97C6.8 21.18 7.8 22.55 9.12 22.5C10.44 22.45 10.87 21.68 12.4 21.68C13.93 21.68 14.4 22.5 15.7 22.47C17 22.44 17.92 21.23 18.76 20.02C19.355 19.1415 19.8199 18.1816 20.14 17.17C19.3475 16.832 18.6713 16.2693 18.195 15.5513C17.7188 14.8333 17.4632 13.9916 17.46 13.13Z" fill="#FAFDFF"/>
</svg>
