<svg width="17" height="16" viewBox="0 0 17 16" fill="none" xmlns="http://www.w3.org/2000/svg">
<path d="M11 10.5L8.5 8L6 10.5" stroke="#1D7BC7" stroke-width="2" stroke-linecap="round" stroke-linejoin="round"/>
<path d="M8.5 8V13.625" stroke="#1D7BC7" stroke-width="2" stroke-linecap="round" stroke-linejoin="round"/>
<path d="M13.7432 11.9937C14.3528 11.6613 14.8343 11.1355 15.1118 10.4991C15.3894 9.86266 15.4471 9.15195 15.2758 8.47911C15.1046 7.80627 14.7141 7.20962 14.1661 6.78333C13.6181 6.35704 12.9437 6.12539 12.2494 6.12493H11.4619C11.2727 5.39321 10.9202 4.71389 10.4306 4.13805C9.94113 3.56221 9.32745 3.10484 8.63574 2.80031C7.94402 2.49578 7.19227 2.35203 6.437 2.37986C5.68173 2.40768 4.94259 2.60637 4.27516 2.96097C3.60773 3.31557 3.02937 3.81687 2.58356 4.42717C2.13776 5.03747 1.83611 5.74089 1.70129 6.48455C1.56647 7.22821 1.60199 7.99276 1.80518 8.72072C2.00838 9.44867 2.37395 10.1211 2.87443 10.6874" stroke="#1D7BC7" stroke-width="2" stroke-linecap="round" stroke-linejoin="round"/>
<path d="M11 10.5L8.5 8L6 10.5" stroke="#1D7BC7" stroke-width="2" stroke-linecap="round" stroke-linejoin="round"/>
</svg>
