<svg width="16" height="15" viewBox="0 0 16 15" fill="none" xmlns="http://www.w3.org/2000/svg">
<path d="M15.084 0.416504H0.917318C0.729456 0.416504 0.549289 0.491132 0.41645 0.62397C0.283612 0.756808 0.208984 0.936976 0.208984 1.12484V6.7915C0.208984 6.97937 0.283612 7.15953 0.41645 7.29237C0.549289 7.42521 0.729456 7.49984 0.917318 7.49984H3.04232V13.8748C3.04232 14.0627 3.11695 14.2429 3.24978 14.3757C3.38262 14.5085 3.56279 14.5832 3.75065 14.5832H12.2507C12.4385 14.5832 12.6187 14.5085 12.7515 14.3757C12.8844 14.2429 12.959 14.0627 12.959 13.8748V7.49984H15.084C15.2718 7.49984 15.452 7.42521 15.5849 7.29237C15.7177 7.15953 15.7923 6.97937 15.7923 6.7915V1.12484C15.7923 0.936976 15.7177 0.756808 15.5849 0.62397C15.452 0.491132 15.2718 0.416504 15.084 0.416504ZM4.45898 13.1665V11.7498C4.83471 11.7498 5.19504 11.8991 5.46072 12.1648C5.7264 12.4304 5.87565 12.7908 5.87565 13.1665H4.45898ZM11.5423 13.1665H10.1257C10.1257 12.7908 10.2749 12.4304 10.5406 12.1648C10.8063 11.8991 11.1666 11.7498 11.5423 11.7498V13.1665ZM11.5423 10.3332C10.7909 10.3332 10.0702 10.6317 9.53885 11.163C9.00749 11.6944 8.70898 12.4151 8.70898 13.1665H7.29232C7.29232 12.4151 6.99381 11.6944 6.46245 11.163C5.9311 10.6317 5.21043 10.3332 4.45898 10.3332V4.6665H11.5423V10.3332ZM14.3757 6.08317H12.959V3.95817C12.959 3.77031 12.8844 3.59014 12.7515 3.4573C12.6187 3.32447 12.4385 3.24984 12.2507 3.24984H3.75065C3.56279 3.24984 3.38262 3.32447 3.24978 3.4573C3.11695 3.59014 3.04232 3.77031 3.04232 3.95817V6.08317H1.62565V1.83317H14.3757V6.08317ZM8.00065 9.62484C8.42094 9.62484 8.83178 9.50021 9.18124 9.26671C9.53069 9.03321 9.80306 8.70133 9.96389 8.31304C10.1247 7.92475 10.1668 7.49748 10.0848 7.08527C10.0028 6.67306 9.80044 6.29442 9.50325 5.99723C9.20607 5.70005 8.82743 5.49766 8.41522 5.41567C8.00301 5.33367 7.57574 5.37576 7.18745 5.53659C6.79916 5.69743 6.46728 5.9698 6.23378 6.31925C6.00028 6.6687 5.87565 7.07955 5.87565 7.49984C5.87565 8.06342 6.09953 8.60392 6.49805 9.00244C6.89656 9.40095 7.43707 9.62484 8.00065 9.62484ZM8.00065 6.7915C8.14075 6.7915 8.27769 6.83305 8.39418 6.91088C8.51066 6.98871 8.60145 7.09934 8.65507 7.22877C8.70868 7.3582 8.7227 7.50062 8.69537 7.63803C8.66804 7.77543 8.60058 7.90164 8.50152 8.0007C8.40246 8.09977 8.27624 8.16723 8.13884 8.19456C8.00144 8.22189 7.85901 8.20786 7.72958 8.15425C7.60015 8.10064 7.48953 8.00985 7.41169 7.89337C7.33386 7.77688 7.29232 7.63993 7.29232 7.49984C7.29232 7.31198 7.36695 7.13181 7.49978 6.99897C7.63262 6.86613 7.81279 6.7915 8.00065 6.7915Z" fill="#FAFDFF"/>
</svg>
